<svg width="199" height="32" viewBox="0 0 199 32" fill="none" xmlns="http://www.w3.org/2000/svg">
<path d="M0.347656 17.251V16.9141C0.347656 15.7715 0.513672 14.7119 0.845703 13.7354C1.17773 12.749 1.65625 11.8945 2.28125 11.1719C2.90625 10.4395 3.66309 9.87305 4.55176 9.47266C5.44043 9.0625 6.43652 8.85742 7.54004 8.85742C8.65332 8.85742 9.6543 9.0625 10.543 9.47266C11.4414 9.87305 12.2031 10.4395 12.8281 11.1719C13.4629 11.8945 13.9463 12.749 14.2783 13.7354C14.6104 14.7119 14.7764 15.7715 14.7764 16.9141V17.251C14.7764 18.3936 14.6104 19.4531 14.2783 20.4297C13.9463 21.4062 13.4629 22.2607 12.8281 22.9932C12.2031 23.7158 11.4463 24.2822 10.5576 24.6924C9.67871 25.0928 8.68262 25.293 7.56934 25.293C6.45605 25.293 5.45508 25.0928 4.56641 24.6924C3.67773 24.2822 2.91602 23.7158 2.28125 22.9932C1.65625 22.2607 1.17773 21.4062 0.845703 20.4297C0.513672 19.4531 0.347656 18.3936 0.347656 17.251ZM3.05762 16.9141V17.251C3.05762 18.042 3.15039 18.7891 3.33594 19.4922C3.52148 20.1855 3.7998 20.8008 4.1709 21.3379C4.55176 21.875 5.02539 22.2998 5.5918 22.6123C6.1582 22.915 6.81738 23.0664 7.56934 23.0664C8.31152 23.0664 8.96094 22.915 9.51758 22.6123C10.084 22.2998 10.5527 21.875 10.9238 21.3379C11.2949 20.8008 11.5732 20.1855 11.7588 19.4922C11.9541 18.7891 12.0518 18.042 12.0518 17.251V16.9141C12.0518 16.1328 11.9541 15.3955 11.7588 14.7021C11.5732 13.999 11.29 13.3789 10.9092 12.8418C10.5381 12.2949 10.0693 11.8652 9.50293 11.5527C8.94629 11.2402 8.29199 11.084 7.54004 11.084C6.79785 11.084 6.14355 11.2402 5.57715 11.5527C5.02051 11.8652 4.55176 12.2949 4.1709 12.8418C3.7998 13.3789 3.52148 13.999 3.33594 14.7021C3.15039 15.3955 3.05762 16.1328 3.05762 16.9141ZM23.8848 12.1973V31.0938H21.1602V9.15039H23.6504L23.8848 12.1973ZM34.5635 16.9434V17.251C34.5635 18.4033 34.4268 19.4727 34.1533 20.459C33.8799 21.4355 33.4795 22.2852 32.9521 23.0078C32.4346 23.7305 31.7949 24.292 31.0332 24.6924C30.2715 25.0928 29.3975 25.293 28.4111 25.293C27.4053 25.293 26.5166 25.127 25.7451 24.7949C24.9736 24.4629 24.3193 23.9795 23.7822 23.3447C23.2451 22.71 22.8154 21.9482 22.4932 21.0596C22.1807 20.1709 21.9658 19.1699 21.8486 18.0566V16.416C21.9658 15.2441 22.1855 14.1943 22.5078 13.2666C22.8301 12.3389 23.2549 11.5479 23.7822 10.8936C24.3193 10.2295 24.9688 9.72656 25.7305 9.38477C26.4922 9.0332 27.3711 8.85742 28.3672 8.85742C29.3633 8.85742 30.2471 9.05273 31.0186 9.44336C31.79 9.82422 32.4395 10.3711 32.9668 11.084C33.4941 11.7969 33.8896 12.6514 34.1533 13.6475C34.4268 14.6338 34.5635 15.7324 34.5635 16.9434ZM31.8389 17.251V16.9434C31.8389 16.1523 31.7559 15.4102 31.5898 14.7168C31.4238 14.0137 31.165 13.3984 30.8135 12.8711C30.4717 12.334 30.0322 11.9141 29.4951 11.6113C28.958 11.2988 28.3184 11.1426 27.5762 11.1426C26.8926 11.1426 26.2969 11.2598 25.7891 11.4941C25.291 11.7285 24.8662 12.0459 24.5146 12.4463C24.1631 12.8369 23.875 13.2861 23.6504 13.7939C23.4355 14.292 23.2744 14.8096 23.167 15.3467V19.1406C23.3623 19.8242 23.6357 20.4688 23.9873 21.0742C24.3389 21.6699 24.8076 22.1533 25.3936 22.5244C25.9795 22.8857 26.7168 23.0664 27.6055 23.0664C28.3379 23.0664 28.9678 22.915 29.4951 22.6123C30.0322 22.2998 30.4717 21.875 30.8135 21.3379C31.165 20.8008 31.4238 20.1855 31.5898 19.4922C31.7559 18.7891 31.8389 18.042 31.8389 17.251ZM47.5977 25.293C46.4941 25.293 45.4932 25.1074 44.5947 24.7363C43.7061 24.3555 42.9395 23.8232 42.2949 23.1396C41.6602 22.4561 41.1719 21.6455 40.8301 20.708C40.4883 19.7705 40.3174 18.7451 40.3174 17.6318V17.0166C40.3174 15.7275 40.5078 14.5801 40.8887 13.5742C41.2695 12.5586 41.7871 11.6992 42.4414 10.9961C43.0957 10.293 43.8379 9.76074 44.668 9.39941C45.498 9.03809 46.3574 8.85742 47.2461 8.85742C48.3789 8.85742 49.3555 9.05273 50.1758 9.44336C51.0059 9.83398 51.6846 10.3809 52.2119 11.084C52.7393 11.7773 53.1299 12.5977 53.3838 13.5449C53.6377 14.4824 53.7646 15.5078 53.7646 16.6211V17.8369H41.9287V15.625H51.0547V15.4199C51.0156 14.7168 50.8691 14.0332 50.6152 13.3691C50.3711 12.7051 49.9805 12.1582 49.4434 11.7285C48.9062 11.2988 48.1738 11.084 47.2461 11.084C46.6309 11.084 46.0645 11.2158 45.5469 11.4795C45.0293 11.7334 44.585 12.1143 44.2139 12.6221C43.8428 13.1299 43.5547 13.75 43.3496 14.4824C43.1445 15.2148 43.042 16.0596 43.042 17.0166V17.6318C43.042 18.3838 43.1445 19.0918 43.3496 19.7559C43.5645 20.4102 43.8721 20.9863 44.2725 21.4844C44.6826 21.9824 45.1758 22.373 45.752 22.6562C46.3379 22.9395 47.002 23.0811 47.7441 23.0811C48.7012 23.0811 49.5117 22.8857 50.1758 22.4951C50.8398 22.1045 51.4209 21.582 51.9189 20.9277L53.5596 22.2314C53.2178 22.749 52.7832 23.2422 52.2559 23.7109C51.7285 24.1797 51.0791 24.5605 50.3076 24.8535C49.5459 25.1465 48.6426 25.293 47.5977 25.293ZM62.6387 12.5342V25H59.9287V9.15039H62.4922L62.6387 12.5342ZM61.9941 16.4746L60.8662 16.4307C60.876 15.3467 61.0371 14.3457 61.3496 13.4277C61.6621 12.5 62.1016 11.6943 62.668 11.0107C63.2344 10.3271 63.9082 9.7998 64.6895 9.42871C65.4805 9.04785 66.3545 8.85742 67.3115 8.85742C68.0928 8.85742 68.7959 8.96484 69.4209 9.17969C70.0459 9.38477 70.5781 9.7168 71.0176 10.1758C71.4668 10.6348 71.8086 11.2305 72.043 11.9629C72.2773 12.6855 72.3945 13.5693 72.3945 14.6143V25H69.6699V14.585C69.6699 13.7549 69.5479 13.0908 69.3037 12.5928C69.0596 12.085 68.7031 11.7188 68.2344 11.4941C67.7656 11.2598 67.1895 11.1426 66.5059 11.1426C65.832 11.1426 65.2168 11.2842 64.6602 11.5674C64.1133 11.8506 63.6396 12.2412 63.2393 12.7393C62.8486 13.2373 62.541 13.8086 62.3164 14.4531C62.1016 15.0879 61.9941 15.7617 61.9941 16.4746ZM99.9863 2.32178L91.749 25H88.3823L97.8672 0.117188H100.038L99.9863 2.32178ZM106.891 25L98.6362 2.32178L98.585 0.117188H100.755L110.274 25H106.891ZM106.463 15.7886V18.4888H92.4839V15.7886H106.463ZM119.229 2.5V25H116.504V2.5H119.229ZM129.523 2.5V25H126.799V2.5H129.523ZM157.306 21.9238V2.5H160.03V25H157.54L157.306 21.9238ZM146.642 17.251V16.9434C146.642 15.7324 146.788 14.6338 147.081 13.6475C147.384 12.6514 147.809 11.7969 148.355 11.084C148.912 10.3711 149.571 9.82422 150.333 9.44336C151.104 9.05273 151.964 8.85742 152.911 8.85742C153.907 8.85742 154.776 9.0332 155.519 9.38477C156.271 9.72656 156.905 10.2295 157.423 10.8936C157.95 11.5479 158.365 12.3389 158.668 13.2666C158.971 14.1943 159.181 15.2441 159.298 16.416V17.7637C159.19 18.9258 158.98 19.9707 158.668 20.8984C158.365 21.8262 157.95 22.6172 157.423 23.2715C156.905 23.9258 156.271 24.4287 155.519 24.7803C154.767 25.1221 153.888 25.293 152.882 25.293C151.954 25.293 151.104 25.0928 150.333 24.6924C149.571 24.292 148.912 23.7305 148.355 23.0078C147.809 22.2852 147.384 21.4355 147.081 20.459C146.788 19.4727 146.642 18.4033 146.642 17.251ZM149.366 16.9434V17.251C149.366 18.042 149.444 18.7842 149.601 19.4775C149.767 20.1709 150.021 20.7812 150.362 21.3086C150.704 21.8359 151.139 22.251 151.666 22.5537C152.193 22.8467 152.823 22.9932 153.556 22.9932C154.454 22.9932 155.191 22.8027 155.768 22.4219C156.354 22.041 156.822 21.5381 157.174 20.9131C157.525 20.2881 157.799 19.6094 157.994 18.877V15.3467C157.877 14.8096 157.706 14.292 157.481 13.7939C157.267 13.2861 156.983 12.8369 156.632 12.4463C156.29 12.0459 155.865 11.7285 155.357 11.4941C154.859 11.2598 154.269 11.1426 153.585 11.1426C152.843 11.1426 152.203 11.2988 151.666 11.6113C151.139 11.9141 150.704 12.334 150.362 12.8711C150.021 13.3984 149.767 14.0137 149.601 14.7168C149.444 15.4102 149.366 16.1523 149.366 16.9434ZM176.595 22.29V14.1309C176.595 13.5059 176.468 12.9639 176.214 12.5049C175.97 12.0361 175.599 11.6748 175.101 11.4209C174.603 11.167 173.987 11.04 173.255 11.04C172.571 11.04 171.971 11.1572 171.453 11.3916C170.945 11.626 170.545 11.9336 170.252 12.3145C169.969 12.6953 169.827 13.1055 169.827 13.5449H167.117C167.117 12.9785 167.264 12.417 167.557 11.8604C167.85 11.3037 168.27 10.8008 168.816 10.3516C169.373 9.89258 170.037 9.53125 170.809 9.26758C171.59 8.99414 172.459 8.85742 173.416 8.85742C174.568 8.85742 175.584 9.05273 176.463 9.44336C177.352 9.83398 178.045 10.4248 178.543 11.2158C179.051 11.9971 179.305 12.9785 179.305 14.1602V21.543C179.305 22.0703 179.349 22.6318 179.437 23.2275C179.534 23.8232 179.676 24.3359 179.861 24.7656V25H177.034C176.897 24.6875 176.79 24.2725 176.712 23.7549C176.634 23.2275 176.595 22.7393 176.595 22.29ZM177.063 15.3906L177.093 17.2949H174.354C173.582 17.2949 172.894 17.3584 172.288 17.4854C171.683 17.6025 171.175 17.7832 170.765 18.0273C170.354 18.2715 170.042 18.5791 169.827 18.9502C169.612 19.3115 169.505 19.7363 169.505 20.2246C169.505 20.7227 169.617 21.1768 169.842 21.5869C170.066 21.9971 170.403 22.3242 170.853 22.5684C171.312 22.8027 171.873 22.9199 172.537 22.9199C173.367 22.9199 174.1 22.7441 174.734 22.3926C175.369 22.041 175.872 21.6113 176.243 21.1035C176.624 20.5957 176.829 20.1025 176.858 19.624L178.016 20.9277C177.947 21.3379 177.762 21.792 177.459 22.29C177.156 22.7881 176.751 23.2666 176.243 23.7256C175.745 24.1748 175.149 24.5508 174.456 24.8535C173.772 25.1465 173.001 25.293 172.142 25.293C171.067 25.293 170.125 25.083 169.314 24.6631C168.514 24.2432 167.889 23.6816 167.439 22.9785C167 22.2656 166.78 21.4697 166.78 20.5908C166.78 19.7412 166.946 18.9941 167.278 18.3496C167.61 17.6953 168.089 17.1533 168.714 16.7236C169.339 16.2842 170.091 15.9521 170.97 15.7275C171.849 15.5029 172.83 15.3906 173.914 15.3906H177.063ZM190.786 23.3594L195.195 9.15039H198.096L191.738 27.4463C191.592 27.8369 191.396 28.2568 191.152 28.7061C190.918 29.165 190.615 29.5996 190.244 30.0098C189.873 30.4199 189.424 30.752 188.896 31.0059C188.379 31.2695 187.759 31.4014 187.036 31.4014C186.821 31.4014 186.548 31.3721 186.216 31.3135C185.884 31.2549 185.649 31.2061 185.513 31.167L185.498 28.9697C185.576 28.9795 185.698 28.9893 185.864 28.999C186.04 29.0186 186.162 29.0283 186.23 29.0283C186.846 29.0283 187.368 28.9453 187.798 28.7793C188.228 28.623 188.589 28.3545 188.882 27.9736C189.185 27.6025 189.443 27.0898 189.658 26.4355L190.786 23.3594ZM187.549 9.15039L191.665 21.4551L192.368 24.3115L190.42 25.3076L184.59 9.15039H187.549Z" fill="black"/>
</svg>
